<?xml version="1.0" encoding="iso-8859-1"?>
<!-- Generator: Adobe Illustrator 19.0.0, SVG Export Plug-In . SVG Version: 6.00 Build 0)  -->
<svg version="1.1" id="Layer_1" xmlns="http://www.w3.org/2000/svg" xmlns:xlink="http://www.w3.org/1999/xlink" x="0px" y="0px"
	 viewBox="0 0 512.006 512.006" style="enable-background:new 0 0 512.006 512.006;" xml:space="preserve">
<polygon style="fill:#ED5564;" points="94.68,54.675 40.008,16.002 16.008,38.674 22.68,72.019 313.338,364.005 333.01,378.677 
	377.338,337.005 "/>
<g>
	<polygon style="fill:#656D78;" points="494.01,478.678 468.01,425.005 462.01,371.005 418.01,343.005 385.01,337.005 
		346.01,367.005 333.01,425.005 361.01,462.006 414.01,494.678 500.01,494.678 	"/>
	<polygon style="fill:#656D78;" points="39.008,425.005 30.68,478.678 82.68,468.334 	"/>
</g>
<polygon style="fill:#FFCE54;" points="364.01,72.019 38.758,382.771 30.68,420.021 69.336,464.022 108.008,478.678 440.01,149.347 
	"/>
<polygon style="fill:#EC87C0;" points="462.01,52.674 441.01,33.331 402.01,39.331 361.01,72.003 384.01,97.331 432.354,139.331 
	475.01,113.331 475.01,72.003 "/>
<path d="M478.244,406.38c0-44.297-35.906-80.204-80.203-80.204c-5.938,0-11.703,0.641-17.266,1.859l-53.156-53.156l144.25-144.251
	c24.984-25,24.984-65.5,0-90.5c-12.484-12.484-28.859-18.734-45.234-18.734s-32.75,6.25-45.25,18.734l0,0L237.117,184.394
	L72.82,20.096c-8.328-8.344-19.25-12.5-30.156-12.5c-10.922,0-21.844,4.156-30.172,12.5c-16.656,16.656-16.656,43.657,0,60.313
	l164.312,164.313L21.383,400.13v90.485h90.5l155.408-155.408l52.688,52.688c-1.406,5.938-2.156,12.125-2.156,18.484
	c0,90.845,133.953,98.032,178.25,98.032C540.371,504.412,478.244,450.678,478.244,406.38z M426.635,42.721
	c11.391,0,22.094,4.438,30.156,12.5c16.625,16.625,16.625,43.688,0,60.312l-15.078,15.094l-60.328-60.343l15.078-15.062
	C404.525,47.159,415.229,42.721,426.635,42.721z M27.57,65.331c-8.312-8.312-8.312-21.844,0-30.172
	c4.031-4.016,9.391-6.234,15.094-6.234c5.688,0,11.047,2.219,15.078,6.234l164.297,164.314l-30.156,30.156L27.57,65.331z
	 M42.727,469.287v-17.656l17.656,17.656H42.727z M103.039,469.287H90.555l-47.828-47.829v-12.484l323.58-323.596l22.688,22.688
	L96.867,400.192l0,0l0,0c-4.172,4.156-4.172,10.922,0,15.094c4.156,4.156,10.922,4.156,15.078,0l292.127-292.142l22.562,22.547
	L103.039,469.287z M282.369,320.129l30.156-30.156l46.391,46.375c-12.625,7.063-23.141,17.438-30.375,29.954L282.369,320.129z
	 M397.15,469.256c-18.547-6.25-32.844-14.406-42.5-24.203c-10.422-10.579-15.484-23.235-15.484-38.673
	c0-15.719,6.109-30.5,17.234-41.625s25.906-17.25,41.641-17.25c32.469,0,58.875,26.406,58.875,58.875
	c0,24.281,12.938,47.97,23.344,66.985c1.547,2.844,3.422,6.266,5.141,9.578C462.432,482.35,427.65,479.537,397.15,469.256z"/>
<g>
</g>
<g>
</g>
<g>
</g>
<g>
</g>
<g>
</g>
<g>
</g>
<g>
</g>
<g>
</g>
<g>
</g>
<g>
</g>
<g>
</g>
<g>
</g>
<g>
</g>
<g>
</g>
<g>
</g>
</svg>
